<svg width="1024" height="237" viewBox="0 0 1024 237" fill="none" xmlns="http://www.w3.org/2000/svg">
<path d="M270.575 63.3098V34.207C270.575 29.2485 267.399 26.4384 260.417 26.4384C257.438 26.4384 254.36 26.6887 251.464 27.1842V63.3098H238.794V0H251.464V18.3234C254.737 17.749 258.183 17.3204 262.848 17.3204C277.2 17.3204 283.527 22.9459 283.527 33.5092V63.3098H270.575Z" fill="#00BFA5"/>
<path d="M117.113 46.5694V25.4413H135.571V15.5718H117.113V7.25542L105.29 8.54461V47.4253C105.29 57.8993 111.38 63.311 124.435 63.311C127.977 63.311 131.587 62.9597 135.571 62.5407V52.582C132.124 53.1847 129.213 53.3416 125.33 53.3416C119.762 53.3416 117.113 51.1199 117.113 46.5694Z" fill="#00BFA5"/>
<path fill-rule="evenodd" clip-rule="evenodd" d="M97.7225 46.4938C97.7225 59.6326 87.3716 63.3088 73.0721 63.3088C60.8736 63.3088 52.9895 59.6326 52.9895 48.3419C52.9895 40.1909 56.7401 36.442 66.8319 34.4247C72.2378 33.4606 78.5618 32.6657 85.1735 32.2237V30.7284C85.1735 25.8244 81.781 23.5579 74.0759 23.5579C67.9348 23.5579 62.0546 24.1691 55.7382 25.6552V15.7652C61.6108 14.4592 67.8472 13.848 74.1655 13.848C90.5717 13.848 97.7225 19.4433 97.7225 31.8617V46.4938ZM85.263 41.1878C80.1219 41.6316 74.4474 42.321 70.3234 43.2851C67.1024 44.0818 65.4547 45.2969 65.4547 48.2837C65.4547 51.7781 67.9348 53.5243 73.5197 53.5243C81.8705 53.5243 85.263 51.8563 85.263 46.2555V41.1878Z" fill="#00BFA5"/>
<path fill-rule="evenodd" clip-rule="evenodd" d="M167.056 13.848C152.788 13.848 142.452 17.5428 142.452 30.6648V45.2731C142.452 57.702 149.582 63.3088 165.961 63.3088C172.364 63.3088 178.578 62.6866 184.342 61.3895V51.4039C178.029 52.8829 172.183 53.5141 166.144 53.5141C158.367 53.5141 154.968 51.2347 154.968 46.3355V44.9184C161.657 44.4908 167.978 43.694 173.278 42.7262C183.336 40.7178 187.185 36.9538 187.185 28.8019C187.185 17.5192 179.228 13.848 167.056 13.848ZM169.817 33.7902C165.691 34.7599 160.019 35.4712 154.886 35.8841V30.8322C154.886 25.2126 158.263 23.5535 166.604 23.5535C172.183 23.5535 174.654 25.309 174.654 28.8019C174.654 31.7854 173.088 33.0061 169.817 33.7902Z" fill="#00BFA5"/>
<path d="M215.87 63.3088C221.348 63.3088 226.931 62.6976 232.603 61.1951V51.507C227.789 52.8185 222.298 53.5243 216.897 53.5243C209.854 53.5243 206.592 51.1596 206.592 45.2969V31.8617C206.592 25.7371 210.116 23.5579 217.065 23.5579C222.466 23.5579 227.96 24.3419 232.603 25.5733V15.938C227.018 14.4519 221.525 13.848 215.947 13.848C201.182 13.848 194.752 20.1472 194.752 31.9654V45.1678C194.752 57.0059 201.182 63.3088 215.87 63.3088Z" fill="#00BFA5"/>
<path d="M24.1323 63.3086H26.7887C32.2006 63.3086 35.6972 61.6426 37.8055 57.2515C42.6656 47.547 47.9018 28.0997 50.9267 14.5072H37.4312C34.6794 27.7406 30.1898 45.2011 27.3463 51.6683C26.8727 52.4667 26.5156 52.545 25.8835 52.545H25.049C24.4035 52.545 24.0407 52.4667 23.5843 51.6683C20.7293 45.2011 16.2378 27.7406 13.4822 14.5072H0C3.01153 28.0997 8.25736 47.547 13.1193 57.2515C15.2181 61.6426 18.7127 63.3086 24.1323 63.3086Z" fill="#00BFA5"/>
<path d="M103.23 212.773C87.6212 216.186 73.9885 217.513 60.3558 217.513C35.0661 217.513 22.8164 209.36 22.8164 187.368V146.796C22.8164 126.131 33.4855 116.841 61.7388 116.841C75.3715 116.841 88.6091 117.979 103.23 121.012V102.243C88.0163 99.2095 75.3715 98.2616 61.5412 98.2616C23.2116 98.2616 0.687968 113.997 0.687968 146.796V187.747C0.687968 220.925 23.4091 236.092 60.3558 236.092C73.9885 236.092 86.8309 235.144 103.23 231.732V212.773Z" fill="#00BFA5"/>
<path d="M158.281 216.911V234.773H149.335C129.302 234.773 122.495 227.932 122.495 208.93V89.0284H143.306V209.12C143.306 214.821 145.639 216.911 151.28 216.911H158.281Z" fill="#00BFA5"/>
<path fill-rule="evenodd" clip-rule="evenodd" d="M168.601 197.708C168.601 223.802 183.244 236.093 217.872 236.093C230.536 236.093 243.596 234.769 256.458 232.122V214.537C243.002 217.562 230.932 218.886 218.664 218.886C198.282 218.886 190.169 212.457 190.169 198.842V195.06C206.197 194.115 220.642 192.413 233.306 189.955C253.885 185.606 262.196 177.475 262.196 160.646C262.196 138.523 247.751 129.257 220.642 129.257C186.806 129.257 168.601 139.657 168.601 164.995V197.708ZM189.972 165.373C189.972 151.948 197.887 146.275 219.653 146.275C234.494 146.275 240.628 151.192 240.628 160.646C240.628 168.21 236.868 171.992 228.162 174.072C217.278 176.719 200.459 178.421 189.972 179.177V165.373Z" fill="#00BFA5"/>
<path d="M343.999 224.537C340.04 232.682 333.113 236.092 323.018 236.092H317.673C307.578 236.092 300.849 232.493 297.088 224.537C286.597 203.13 274.918 160.128 268.387 130.576H291.15C298.671 165.243 308.766 201.425 315.298 215.444C316.288 217.338 317.08 217.528 318.861 217.528H322.226C324.007 217.528 324.997 217.338 325.591 215.444C331.727 201.236 342.416 165.243 349.937 130.576H372.305C365.575 160.128 353.896 203.13 343.999 224.537Z" fill="#00BFA5"/>
<path fill-rule="evenodd" clip-rule="evenodd" d="M378.493 197.708C378.493 223.802 393.136 236.093 427.764 236.093C440.428 236.093 453.488 234.769 466.35 232.122V214.537C452.895 217.562 440.824 218.886 428.556 218.886C408.175 218.886 400.062 212.457 400.062 198.842V195.06C416.09 194.115 430.535 192.413 443.199 189.955C463.778 185.606 472.088 177.475 472.088 160.646C472.088 138.523 457.644 129.257 430.535 129.257C396.698 129.257 378.493 139.657 378.493 164.995V197.708ZM399.864 165.373C399.864 151.948 407.779 146.275 429.545 146.275C444.386 146.275 450.52 151.192 450.52 160.646C450.52 168.21 446.76 171.992 438.054 174.072C427.171 176.719 410.351 178.421 399.864 179.177V165.373Z" fill="#00BFA5"/>
<path d="M536.074 129.257C540.061 129.257 545.445 129.257 551.227 129.827V147.666C545.445 147.097 541.058 147.097 537.27 147.097C520.123 147.097 508.957 150.702 508.957 167.023V234.774H487.224V166.833C487.224 142.352 502.178 129.257 536.074 129.257Z" fill="#00BFA5"/>
<path fill-rule="evenodd" clip-rule="evenodd" d="M658.062 234.773C698.653 234.773 718.454 215.785 718.454 184.455V149.898C718.454 118.568 698.653 99.5801 658.062 99.5801H605.59V234.773H658.062ZM696.079 184.835C696.079 205.912 684.793 216.545 658.062 216.545H627.965V117.808H658.062C684.793 117.808 696.079 128.441 696.079 149.518V184.835Z" fill="#00BFA5"/>
<path fill-rule="evenodd" clip-rule="evenodd" d="M786.99 236.093C752.362 236.093 737.719 223.802 737.719 197.708V164.995C737.719 139.657 755.924 129.257 789.76 129.257C816.869 129.257 831.314 138.523 831.314 160.646C831.314 177.475 823.003 185.606 802.424 189.955C789.76 192.413 775.315 194.115 759.287 195.06V198.842C759.287 212.457 767.4 218.886 787.781 218.886C800.05 218.886 812.12 217.562 825.576 214.537V232.122C812.714 234.769 799.654 236.093 786.99 236.093ZM788.771 146.275C767.004 146.275 759.089 151.948 759.089 165.373V179.177C769.577 178.421 786.396 176.719 797.279 174.072C805.986 171.992 809.746 168.21 809.746 160.646C809.746 151.192 803.611 146.275 788.771 146.275Z" fill="#00BFA5"/>
<path d="M940.732 234.774V167.145C940.732 142.707 925.858 129.257 895.119 129.257C881.038 129.257 863.983 130.583 848.514 134.183V234.774H869.932V148.58C877.072 147.443 885.599 146.496 893.334 146.496C911.381 146.496 919.116 153.884 919.116 167.524V234.774H940.732Z" fill="#00BFA5"/>
<path d="M1024 130.48V147.986H981.001V200.888C981.001 213.637 988.135 218.204 1002.4 218.204C1010.13 218.204 1016.67 217.824 1024 216.682V234.76C1016.67 235.521 1008.94 236.092 1001.41 236.092C974.066 236.092 959.997 225.435 959.997 201.839V113.924L981.001 111.45V130.48H1024Z" fill="#00BFA5"/>
</svg>
