<svg width="1097" height="245" viewBox="0 0 1097 245" fill="none" xmlns="http://www.w3.org/2000/svg">
<path d="M1046.89 244.995V132.374C1046.89 113.186 1034.6 102.311 1007.58 102.311C996.055 102.311 984.147 103.28 972.943 105.197V244.995H923.923V0H972.943V70.9077C985.607 68.685 998.939 67.0263 1016.99 67.0263C1072.52 67.0263 1097 88.7955 1097 129.673V244.995H1046.89Z" fill="#00BFA5"/>
<path d="M453.124 180.214V98.4525H524.539V60.2597H453.124V28.0769L407.38 33.0658V183.526C407.38 224.058 430.943 245 481.455 245C495.159 245 509.126 243.641 524.539 242.019V203.481C511.204 205.813 499.94 206.421 484.916 206.421C463.374 206.421 453.124 197.823 453.124 180.214Z" fill="#00BFA5"/>
<path fill-rule="evenodd" clip-rule="evenodd" d="M378.099 179.921C378.099 230.765 338.051 244.991 282.724 244.991C235.527 244.991 205.023 230.765 205.023 187.073C205.023 155.53 219.534 141.023 258.58 133.216C279.496 129.485 303.965 126.409 329.546 124.699V118.912C329.546 99.9348 316.42 91.1639 286.608 91.1639C262.847 91.1639 240.096 93.5291 215.657 99.2801V61.008C238.379 55.9539 262.508 53.5887 286.955 53.5887C350.432 53.5887 378.099 75.2413 378.099 123.298V179.921ZM329.892 159.388C310.001 161.105 288.046 163.773 272.089 167.504C259.627 170.587 253.252 175.289 253.252 186.848C253.252 200.37 262.847 207.128 284.456 207.128C316.766 207.128 329.892 200.673 329.892 178.999V159.388Z" fill="#00BFA5"/>
<path fill-rule="evenodd" clip-rule="evenodd" d="M646.358 53.5887C591.154 53.5887 551.162 67.8869 551.162 118.666V175.197C551.162 223.294 578.75 244.991 642.123 244.991C666.895 244.991 690.938 242.584 713.239 237.564V198.922C688.813 204.645 666.196 207.088 642.829 207.088C612.741 207.088 599.587 198.267 599.587 179.309V173.824C625.469 172.17 649.924 169.086 670.431 165.341C709.349 157.569 724.239 143.003 724.239 111.457C724.239 67.7954 693.453 53.5887 646.358 53.5887ZM657.042 130.761C641.079 134.513 619.131 137.266 599.271 138.864V119.314C599.271 97.5674 612.337 91.147 644.608 91.147C666.196 91.147 675.755 97.9405 675.755 111.457C675.755 123.003 669.696 127.727 657.042 130.761Z" fill="#00BFA5"/>
<path d="M835.227 244.991C856.421 244.991 878.023 242.626 899.969 236.812V199.321C881.34 204.396 860.098 207.128 839.2 207.128C811.95 207.128 799.328 197.977 799.328 175.289V123.298C799.328 99.5969 812.964 91.1639 839.848 91.1639C860.746 91.1639 882.002 94.1978 899.969 98.9634V61.6767C878.361 55.9257 857.104 53.5887 835.524 53.5887C778.396 53.5887 753.519 77.9654 753.519 123.699V174.79C753.519 220.601 778.396 244.991 835.227 244.991Z" fill="#00BFA5"/>
<path d="M93.3708 244.991H103.648C124.588 244.991 138.117 238.543 146.274 221.551C165.078 183.997 185.338 108.74 197.041 56.1399H144.826C134.178 107.35 116.808 174.918 105.806 199.945C103.974 203.035 102.592 203.338 100.146 203.338H96.9174C94.42 203.338 93.0161 203.035 91.2502 199.945C80.2041 174.918 62.826 107.35 52.1641 56.1399H0C11.652 108.74 31.9487 183.997 50.7603 221.551C58.8804 238.543 72.4017 244.991 93.3708 244.991Z" fill="#00BFA5"/>
</svg>
